<svg id="Layer_1" enable-background="new 0 0 512 512" height="512" viewBox="0 0 512 512" width="512" xmlns="http://www.w3.org/2000/svg"><g><g><path clip-rule="evenodd" d="m20.029 213.708v218.584c0 19.624 16.072 35.709 35.745 35.709h400.452c19.644 0 35.745-16.084 35.745-35.709v-218.584c-94.252 0-377.718 0-471.942 0z" fill="#fde588" fill-rule="evenodd"/></g><g><path clip-rule="evenodd" d="m55.831 258.393c0 6.74 5.528 12.233 12.246 12.233h19.021c6.718 0 12.246-5.494 12.246-12.233v-44.717h-43.513z" fill="#7e707d" fill-rule="evenodd"/></g><g><path clip-rule="evenodd" d="m412.657 258.393c0 6.74 5.499 12.233 12.217 12.233h19.021c6.747 0 12.246-5.494 12.246-12.233v-41.717h-43.484z" fill="#7e707d" fill-rule="evenodd"/></g><g><path clip-rule="evenodd" d="m358.714 101.372v45.11h32.003v-45.11c0-31.66-25.767-57.372-57.458-57.372h-154.546c-31.691 0-57.43 25.712-57.43 57.372v45.11h31.975v-45.11c0-14.017 11.424-25.401 25.455-25.401h154.545c14.032 0 25.456 11.383 25.456 25.401z" fill="#7e707d" fill-rule="evenodd"/></g><g><path clip-rule="evenodd" d="m20.029 223.675h35.802v25.854h-35.802z" fill="#fdd76f" fill-rule="evenodd"/></g><g><path clip-rule="evenodd" d="m99.343 223.675h313.314v25.854h-313.314z" fill="#fdd76f" fill-rule="evenodd"/></g><g><path clip-rule="evenodd" d="m456.141 223.675h35.83v25.854h-35.83z" fill="#fdd76f" fill-rule="evenodd"/></g><g><path clip-rule="evenodd" d="m367.813 101.372v35.114h22.904v-35.114c0-31.66-25.767-57.372-57.458-57.372h-22.904c31.691 0 57.458 25.712 57.458 57.372z" fill="#6a5c69" fill-rule="evenodd"/></g><g><path clip-rule="evenodd" d="m445.426 270.541v161.75c0 19.624-16.072 35.709-35.745 35.709h46.545c19.644 0 35.745-16.084 35.745-35.709v-182.762h-35.83v8.863c0 6.231-4.677 11.385-10.715 12.149z" fill="#fdd76f" fill-rule="evenodd"/></g><g><path clip-rule="evenodd" d="m20.029 193.007h471.942v-39.446c0-9.401-7.71-17.076-17.093-17.076h-84.161-32.003-205.456-31.975-84.161c-9.411 0-17.093 7.674-17.093 17.076z" fill="#fde588" fill-rule="evenodd"/></g><g><path clip-rule="evenodd" d="m445.426 153.561v29.45h46.545v-29.45c0-9.401-7.71-17.076-17.093-17.076h-46.545c9.411 0 17.093 7.675 17.093 17.076z" fill="#fdd76f" fill-rule="evenodd"/></g><g><path clip-rule="evenodd" d="m99.343 223.675h313.314 43.484 35.83 2.863c5.301 0 9.666-4.333 9.666-9.628v-21.38c0-5.324-4.365-9.656-9.666-9.656h-2.863-471.942-2.891c-5.301 0-9.638 4.333-9.638 9.656v21.38c0 5.295 4.337 9.628 9.638 9.628h2.891 35.802z" fill="#fe8d94" fill-rule="evenodd"/></g><g><path clip-rule="evenodd" d="m457.955 193.206v20.842c0 5.295-4.337 9.628-9.638 9.628h7.824 35.83 2.863c5.301 0 9.666-4.333 9.666-9.628v-21.38c0-5.324-4.365-9.656-9.666-9.656h-2.863-43.654c5.301 0 9.638 4.333 9.638 9.656z" fill="#ff6d75" fill-rule="evenodd"/></g><g><path clip-rule="evenodd" d="m55.831 223.675h43.512v25.854h-43.512z" fill="#6a5c69" fill-rule="evenodd"/></g><g><path clip-rule="evenodd" d="m412.657 223.675v25.854h43.484v-25.854h-7.824z" fill="#6a5c69" fill-rule="evenodd"/></g><g><path clip-rule="evenodd" d="m203.346 265.076c-20.013 0-36.369 16.339-36.369 36.332v84.783c0 19.992 16.356 36.332 36.369 36.332h84.87c20.013 0 36.369-16.339 36.369-36.332v-84.783c0-19.992-16.356-36.332-36.369-36.332zm1.531 93.08v-28.714c0-2.775 2.268-5.041 5.046-5.041h16.441v-16.424c0-2.775 2.268-5.041 5.046-5.041h28.743c2.778 0 5.046 2.265 5.046 5.041v16.424h16.441c2.778 0 5.046 2.265 5.046 5.041v28.714c0 2.775-2.268 5.041-5.046 5.041h-16.441v16.424c0 2.775-2.268 5.041-5.046 5.041h-28.743c-2.778 0-5.046-2.265-5.046-5.041v-16.424h-16.441c-2.778-.001-5.046-2.266-5.046-5.041z" fill="#eff6ff" fill-rule="evenodd"/></g><g><path clip-rule="evenodd" d="m204.877 329.442v28.714c0 2.775 2.268 5.041 5.046 5.041h16.441v16.424c0 2.775 2.268 5.041 5.046 5.041h28.743c2.778 0 5.046-2.265 5.046-5.041v-16.424h16.441c2.778 0 5.046-2.265 5.046-5.041v-28.714c0-2.775-2.268-5.041-5.046-5.041h-16.441v-16.424c0-2.775-2.268-5.041-5.046-5.041h-28.743c-2.778 0-5.046 2.265-5.046 5.041v16.424h-16.441c-2.778 0-5.046 2.266-5.046 5.041z" fill="#fe8d94" fill-rule="evenodd"/></g><g><path clip-rule="evenodd" d="m264.518 265.076c20.013 0 36.369 16.339 36.369 36.332v84.783c0 19.964-16.356 36.303-36.34 36.332h23.669c20.013 0 36.369-16.339 36.369-36.332v-84.783c0-19.992-16.356-36.332-36.369-36.332z" fill="#d9eeff" fill-rule="evenodd"/></g><g><path d="m499.471 176.165v-22.604c0-13.551-11.032-24.576-24.593-24.576h-76.661v-27.614c0-35.771-29.14-64.872-64.958-64.872h-154.546c-35.803 0-64.93 29.101-64.93 64.872v27.614h-76.661c-13.561 0-24.593 11.024-24.593 24.576v22.598c-7.215 2.023-12.529 8.649-12.529 16.508v21.38c0 7.847 5.314 14.462 12.529 16.481v201.763c0 23.825 19.399 43.208 43.245 43.208h400.452c23.845 0 43.245-19.383 43.245-43.208v-201.768c7.217-2.026 12.529-8.636 12.529-16.475v-21.38c0-7.853-5.312-14.474-12.529-16.503zm-370.688-74.793c0-27.5 22.398-49.872 49.93-49.872h154.545c27.547 0 49.958 22.372 49.958 49.872v27.614h-17.003v-27.614c0-18.142-14.784-32.901-32.956-32.901h-154.544c-18.172 0-32.956 14.759-32.956 32.901v27.614h-16.975v-27.614zm31.975 27.613v-27.614c0-9.871 8.055-17.901 17.956-17.901h154.545c9.901 0 17.956 8.03 17.956 17.901v27.614zm-123.636 15h437.756c5.29 0 9.593 4.295 9.593 9.576v21.95h-456.942v-21.95c0-5.28 4.304-9.576 9.593-9.576zm459.878 70.062c0 1.153-.992 2.128-2.164 2.128l-220.423-.057c-.001 0-.001 0-.002 0-4.141 0-7.499 3.357-7.5 7.498-.001 4.142 3.356 7.501 7.498 7.502l130.748.034v27.241c0 10.881 8.845 19.733 19.717 19.733h19.021c10.888 0 19.746-8.852 19.746-19.733v-27.226l20.83.005v201.119c0 15.554-12.671 28.208-28.245 28.208h-400.452c-15.574 0-28.245-12.654-28.245-28.208v-201.116h20.802v27.218c0 10.881 8.858 19.733 19.746 19.733h19.021c10.888 0 19.746-8.852 19.746-19.733v-27.218h132.969c4.142 0 7.5-3.358 7.5-7.5s-3.358-7.5-7.5-7.5h-222.675c-1.159 0-2.138-.975-2.138-2.128v-21.38c0-1.169.979-2.156 2.138-2.156h477.696c1.174 0 2.166.987 2.166 2.156zm-48.359 17.128v27.218c0 2.61-2.129 4.733-4.746 4.733h-19.021c-2.601 0-4.717-2.123-4.717-4.733v-27.218zm-385.31 27.218v-27.218h28.512v27.218c0 2.565-2.173 4.733-4.746 4.733h-19.02c-2.573 0-4.746-2.168-4.746-4.733z"/><path d="m231.409 392.161h28.744c6.917 0 12.545-5.625 12.545-12.541v-8.924h8.941c6.917 0 12.545-5.625 12.545-12.541v-28.714c0-6.915-5.628-12.541-12.545-12.541h-8.941v-8.924c0-6.915-5.628-12.541-12.545-12.541h-28.744c-6.917 0-12.545 5.625-12.545 12.541v8.924h-8.941c-6.918 0-12.546 5.625-12.546 12.541v28.714c0 6.915 5.628 12.541 12.546 12.541h8.941v8.924c0 6.916 5.628 12.541 12.545 12.541zm-19.032-36.465v-23.795h13.987c4.142 0 7.5-3.358 7.5-7.5v-13.965h23.834v13.965c0 4.142 3.358 7.5 7.5 7.5h13.987v23.795h-13.987c-4.142 0-7.5 3.358-7.5 7.5v13.965h-23.834v-13.965c0-4.142-3.358-7.5-7.5-7.5z"/><path d="m159.478 301.407v84.783c0 24.169 19.679 43.832 43.869 43.832h26.589c4.142 0 7.5-3.358 7.5-7.5s-3.358-7.5-7.5-7.5h-26.589c-15.918 0-28.869-12.934-28.869-28.832v-84.783c0-15.898 12.951-28.832 28.869-28.832h84.87c15.918 0 28.869 12.934 28.869 28.832v84.783c0 15.898-12.95 28.832-28.869 28.832h-23.669c-4.142 0-7.5 3.358-7.5 7.5s3.358 7.5 7.5 7.5h23.669c24.189 0 43.869-19.663 43.869-43.832v-84.783c0-24.169-19.679-43.832-43.869-43.832h-84.87c-24.19.001-43.869 19.663-43.869 43.832z"/></g></g></svg>